<svg width="110" height="38" viewBox="0 0 110 38" fill="none" xmlns="http://www.w3.org/2000/svg">
<path d="M0.817348 31.3653C0.736509 31.3653 0.696089 31.2643 0.696089 31.0622C0.696089 30.9611 0.706194 30.8399 0.726404 30.6984C0.746614 30.5569 0.797138 30.3851 0.877977 30.183C1.05986 29.6576 1.38322 28.9401 1.84804 28.0307C2.31287 27.1415 2.85853 26.1411 3.48503 25.0295C4.13175 23.8978 4.82898 22.7256 5.57674 21.5131C6.3245 20.3005 7.08237 19.098 7.85034 17.9056C8.61831 16.7132 9.34586 15.6017 10.033 14.571C10.7403 13.5201 11.3668 12.6107 11.9125 11.8427C12.4582 11.0747 12.8826 10.5088 13.1857 10.1451C13.5293 9.11438 13.9032 8.29588 14.3074 7.68959C14.7115 7.0833 15.1258 6.78015 15.5503 6.78015C15.8736 6.78015 16.2273 6.85089 16.6113 6.99235C16.9952 7.11361 17.3287 7.27529 17.6116 7.47739C17.8946 7.65928 18.036 7.86137 18.036 8.08368C18.036 8.26557 17.9552 8.40704 17.7935 8.50809C17.3287 8.89207 16.9144 9.46805 16.5506 10.236C16.2071 11.004 15.914 11.8932 15.6715 12.9037C15.429 13.894 15.2471 14.955 15.1258 16.0867C15.0046 17.1983 14.944 18.2997 14.944 19.391C14.944 20.5834 15.0147 21.7152 15.1562 22.7863C15.2976 23.8574 15.5199 24.7567 15.8231 25.4843C16.0656 24.8376 16.4294 24.0393 16.9144 23.0894C17.3994 22.1193 17.9552 21.0684 18.5817 19.9367C19.2082 18.7847 19.865 17.6227 20.5522 16.4505C21.2393 15.2581 21.9062 14.1264 22.5529 13.0553C23.2198 11.964 23.8261 10.9939 24.3718 10.1451C24.9377 9.27605 25.4025 8.58892 25.7663 8.08368C26.1503 7.57844 26.3827 7.32581 26.4635 7.32581C26.5241 7.32581 26.6252 7.31571 26.7667 7.2955C26.9283 7.25508 27.0799 7.23487 27.2214 7.23487C27.5245 7.23487 27.6761 7.31571 27.6761 7.47739C27.6761 7.61886 27.6054 7.77043 27.4639 7.93211C26.4332 9.28616 25.3621 10.7817 24.2505 12.4187C23.139 14.0354 22.0578 15.6825 21.0069 17.36C19.9762 19.0374 19.0364 20.6339 18.1876 22.1497C17.3388 23.6654 16.6517 24.9992 16.1262 26.1512L16.2172 26.3028C16.4799 26.7474 16.8033 27.0909 17.1872 27.3335C17.5712 27.5962 17.9249 27.7276 18.2483 27.7276C18.4706 27.7276 18.6727 27.6669 18.8545 27.5457C18.8748 27.5457 18.8849 27.5356 18.8849 27.5153C18.9051 27.5153 18.9152 27.5153 18.9152 27.5153C18.996 27.5153 19.0465 27.5558 19.0667 27.6366C19.087 27.7377 19.0667 27.8084 19.0061 27.8488C18.5413 28.1722 18.0259 28.3338 17.4601 28.3338C16.9952 28.3338 16.5304 28.2025 16.0656 27.9398C15.6008 27.677 15.1764 27.293 14.7924 26.7878C13.8223 25.4742 13.1352 23.9786 12.731 22.3012C12.3268 20.6238 12.1247 18.9464 12.1247 17.269C12.1247 16.3596 12.1752 15.4703 12.2763 14.6013C12.3773 13.7323 12.5087 12.9037 12.6704 12.1155C11.8216 13.2675 10.9323 14.5306 10.0027 15.9049C9.09324 17.2589 8.1838 18.6534 7.27436 20.0883C6.36492 21.5232 5.50601 22.9277 4.69762 24.302C3.88923 25.6561 3.17178 26.9091 2.54528 28.061C1.91878 29.213 1.43374 30.2032 1.09018 31.0318C0.989131 31.2542 0.898187 31.3653 0.817348 31.3653ZM23.0671 27.2728C22.2789 27.2728 21.6827 27.0808 21.2785 26.6969C20.8945 26.2927 20.7025 25.7773 20.7025 25.1508C20.7025 24.7668 20.7531 24.3929 20.8541 24.0292C20.9552 23.6654 21.0663 23.342 21.1876 23.0591C21.0461 23.2006 20.9046 23.3319 20.7632 23.4532C20.6419 23.5542 20.5409 23.6351 20.46 23.6957C20.3792 23.7563 20.3085 23.7867 20.2478 23.7867C20.167 23.7867 20.1266 23.7361 20.1266 23.6351C20.1266 23.4936 20.2276 23.3319 20.4297 23.15C21.1371 22.564 21.6928 22.0486 22.097 21.604C22.5012 21.1392 22.9256 20.7148 23.3702 20.3308C24.118 19.6841 24.9163 19.1788 25.7651 18.8151C26.6139 18.4513 27.4627 18.2694 28.3115 18.2694C29.2007 18.2694 29.898 18.4816 30.4032 18.906C30.9085 19.3304 31.1611 19.9569 31.1611 20.7855C31.1611 21.2503 31.0196 21.7859 30.7367 22.3922C30.474 22.9985 30.0496 23.625 29.4635 24.2717C29.221 24.5344 28.9481 24.7971 28.645 25.0599C28.3418 25.3024 28.0791 25.4843 27.8568 25.6055C28.8471 25.5045 29.7767 25.1609 30.6457 24.5748C31.5148 23.9685 32.2928 23.3724 32.98 22.7863C33.081 22.7256 33.1518 22.6953 33.1922 22.6953C33.2932 22.6953 33.3437 22.7458 33.3437 22.8469C33.3437 22.9277 33.2932 23.0187 33.1922 23.1197C32.3232 23.9483 31.3834 24.6456 30.3729 25.2114C29.3826 25.7773 28.2812 26.0501 27.0686 26.0299C26.3613 26.4139 25.664 26.7171 24.9769 26.9394C24.31 27.1617 23.6734 27.2728 23.0671 27.2728ZM24.4312 26.424C24.7142 26.424 25.0173 26.3735 25.3407 26.2724C25.664 26.1714 25.9874 26.04 26.3108 25.8784C26.1895 25.8784 26.0682 25.8177 25.947 25.6965C25.8459 25.5752 25.7954 25.4135 25.7954 25.2114C25.7954 24.8072 25.947 24.3929 26.2501 23.9685C26.5533 23.5441 26.9272 23.1804 27.3718 22.8772C27.8164 22.5741 28.2509 22.4225 28.6753 22.4225C28.9178 22.4225 29.1401 22.4932 29.3422 22.6347C29.5645 22.756 29.6858 22.9277 29.706 23.15C30.0496 22.7661 30.282 22.3518 30.4032 21.9071C30.5447 21.4625 30.6154 21.0482 30.6154 20.6642C30.6154 20.1388 30.4436 19.7447 30.1001 19.482C29.7767 19.199 29.3321 19.0576 28.7662 19.0576C28.2206 19.0576 27.6143 19.2496 26.9474 19.6335C26.3006 20.0175 25.6843 20.5127 25.0982 21.119C24.5323 21.7253 24.0574 22.3821 23.6734 23.0894C23.3096 23.7968 23.1277 24.4738 23.1277 25.1205C23.1277 25.9895 23.5622 26.424 24.4312 26.424ZM34.5689 27.3335C33.7605 27.3335 33.0531 27.1819 32.4469 26.8787C31.8204 26.5554 31.3656 25.9693 31.0827 25.1205C31.0625 25.0397 31.0928 24.9891 31.1736 24.9689C31.2343 24.9487 31.2747 24.9891 31.2949 25.0902C31.497 25.5348 31.7597 25.848 32.0831 26.0299C32.4064 26.2118 32.7601 26.3028 33.1441 26.3028C33.7908 26.3028 34.3567 26.1108 34.8417 25.7268C35.347 25.3428 35.7916 24.8578 36.1756 24.2717C36.5797 23.6856 36.9334 23.0894 37.2366 22.4831C37.5599 21.8566 37.8631 21.3211 38.146 20.8764C38.5906 20.1287 39.1161 19.4517 39.7224 18.8454C40.3489 18.2391 40.9147 17.8652 41.42 17.7237C41.2987 17.6631 41.1472 17.6328 40.9653 17.6328C40.46 17.6328 39.9043 17.7844 39.298 18.0875C38.6917 18.3906 38.0753 18.7847 37.4488 19.2698C36.8425 19.7548 36.2463 20.2702 35.6602 20.8158C35.0943 21.3413 34.5689 21.8364 34.0838 22.3012C33.619 22.7458 33.2451 23.0995 32.9622 23.3622C32.8005 23.5037 32.6793 23.5744 32.5984 23.5744C32.5176 23.5744 32.4772 23.534 32.4772 23.4532C32.4772 23.3319 32.5277 23.2208 32.6287 23.1197C33.235 22.5943 33.8615 22.0082 34.5083 21.3615C35.155 20.6946 35.8118 20.058 36.4787 19.4517C37.1456 18.8252 37.8226 18.3098 38.5098 17.9056C39.1969 17.5014 39.8941 17.2993 40.6015 17.2993C40.6823 17.2993 40.7531 17.2993 40.8137 17.2993C40.8945 17.2993 40.9754 17.3094 41.0562 17.3296C41.2785 17.3498 41.4806 17.4105 41.6625 17.5115C41.8646 17.6126 41.9252 17.6833 41.8444 17.7237C41.3796 17.9258 41.0158 18.33 40.7531 18.9363C40.4903 19.5426 40.2478 20.2499 40.0255 21.0583C39.8032 21.8667 39.5304 22.6852 39.207 23.5138C38.9039 24.3424 38.4593 25.0801 37.8732 25.7268C38.1561 25.6257 38.6007 25.3933 39.207 25.0295C39.8133 24.6658 40.4802 24.2212 41.2078 23.6957C41.9353 23.15 42.6124 22.5539 43.2389 21.9071C43.3197 21.8263 43.4005 21.7859 43.4814 21.7859C43.5824 21.7859 43.6329 21.8364 43.6329 21.9375C43.6329 22.0183 43.5925 22.0991 43.5117 22.18C42.966 22.7054 42.3597 23.2713 41.6928 23.8776C41.0259 24.4637 40.2983 25.0194 39.5102 25.5449C38.7422 26.0704 37.9439 26.5049 37.1153 26.8484C36.2867 27.1718 35.4379 27.3335 34.5689 27.3335ZM44.1374 27.5153C43.4907 27.5153 42.9956 27.3234 42.652 26.9394C42.3084 26.5554 42.1366 26.0198 42.1366 25.3327C42.1366 24.686 42.3084 23.9281 42.652 23.0591L42.7126 22.9075L42.167 23.4229C42.0861 23.5037 41.9952 23.5441 41.8941 23.5441C41.7931 23.5441 41.7425 23.5037 41.7425 23.4229C41.7425 23.3218 41.8133 23.2006 41.9548 23.0591C42.4802 22.5943 43.0158 22.1092 43.5614 21.604C44.1273 21.0785 44.6022 20.5834 44.9862 20.1186C44.8447 20.1792 44.6932 20.2095 44.5315 20.2095C44.3698 20.2095 44.2486 20.1691 44.1677 20.0883C44.0262 19.9872 43.9555 19.8053 43.9555 19.5426C43.9555 19.3203 44.0566 19.0879 44.2587 18.8454C44.481 18.6029 44.9256 18.3906 45.5925 18.2088C45.734 18.1683 45.8754 18.138 46.0169 18.1178C46.1786 18.0976 46.3302 18.0774 46.4716 18.0572C47.1183 17.1478 47.6842 16.309 48.1692 15.5411C48.6543 14.7529 49.0383 14.2274 49.3212 13.9647C49.4425 13.8232 49.6547 13.702 49.9578 13.6009C50.2812 13.4999 50.6146 13.4191 50.9582 13.3584C51.322 13.2978 51.6049 13.2675 51.807 13.2675C52.4739 13.2675 52.8074 13.3281 52.8074 13.4494C52.8074 13.5302 52.6558 13.7222 52.3527 14.0253C51.8474 14.5104 51.2512 15.1167 50.5641 15.8442C49.8972 16.5516 49.21 17.3195 48.5027 18.1481C49.0888 18.229 49.6243 18.3805 50.1094 18.6029C50.6146 18.8252 50.9784 19.1081 51.2007 19.4517C51.2815 19.5527 51.322 19.674 51.322 19.8154C51.322 19.9771 51.2714 20.058 51.1704 20.058C51.0896 20.058 50.9986 20.0074 50.8976 19.9064C50.4732 19.482 49.7658 19.2698 48.7755 19.2698C48.5734 19.2698 48.3612 19.2799 48.1389 19.3001C47.9368 19.3203 47.7246 19.3506 47.5023 19.391C46.8152 20.2803 46.1887 21.1695 45.6228 22.0587C45.0569 22.9479 44.6528 23.7765 44.4102 24.5445C44.289 24.9083 44.2283 25.2418 44.2283 25.5449C44.2283 25.848 44.2991 26.1007 44.4405 26.3028C44.582 26.4847 44.7942 26.5756 45.0772 26.5756C45.259 26.5756 45.4814 26.5251 45.7441 26.424C46.1281 26.2826 46.5727 26.0501 47.0779 25.7268C47.5832 25.3832 48.0884 24.9992 48.5937 24.5748C49.1191 24.1504 49.6041 23.7361 50.0488 23.3319C50.5136 22.9277 50.8976 22.5842 51.2007 22.3012C51.5039 22.0183 51.6756 21.8566 51.7161 21.8162C51.7767 21.7556 51.8272 21.7253 51.8676 21.7253C51.9485 21.7253 51.9889 21.7859 51.9889 21.9071C51.9889 22.0486 51.9283 22.18 51.807 22.3012C51.6049 22.5033 51.2917 22.8065 50.8672 23.2107C50.4631 23.6149 49.9881 24.0696 49.4425 24.5748C48.917 25.0599 48.3511 25.5247 47.7448 25.9693C47.1385 26.4139 46.5222 26.7777 45.8957 27.0606C45.2894 27.3638 44.7033 27.5153 44.1374 27.5153ZM52.2411 27.0303C51.6146 27.0303 51.1296 26.8383 50.786 26.4543C50.4425 26.0501 50.2707 25.5348 50.2707 24.9083C50.2707 24.3222 50.4222 23.6755 50.7254 22.9682C51.0487 22.2608 51.554 21.5434 52.2411 20.8158C52.9485 20.0478 53.8276 19.4315 54.8785 18.9666C55.9294 18.4816 56.9298 18.2391 57.8796 18.2391C58.6476 18.2391 59.3044 18.4109 59.8501 18.7544C60.3957 19.0778 60.7595 19.4921 60.9414 19.9973C61.1637 19.9973 61.4366 20.058 61.7599 20.1792C62.1035 20.3005 62.2753 20.5228 62.2753 20.8461C62.2753 21.0684 62.1641 21.3211 61.9418 21.604C61.8003 21.8061 61.5477 22.1092 61.1839 22.5134C60.8404 22.9176 60.517 23.3521 60.2139 23.817C59.9713 24.1807 59.7794 24.5243 59.6379 24.8477C59.4964 25.1508 59.4257 25.4135 59.4257 25.6358C59.4257 25.939 59.5773 26.0906 59.8804 26.0906C60.224 26.0906 60.7393 25.8986 61.4264 25.5146C62.1742 25.0902 62.8917 24.6051 63.5788 24.0595C64.2659 23.5138 64.8015 23.0793 65.1855 22.756C65.2865 22.6751 65.3572 22.6347 65.3977 22.6347C65.4785 22.6347 65.5189 22.6852 65.5189 22.7863C65.5189 22.9075 65.4684 23.0187 65.3673 23.1197C65.1855 23.2814 64.8318 23.5846 64.3063 24.0292C63.7809 24.4738 63.1746 24.9386 62.4875 25.4236C61.8205 25.9087 61.1637 26.3028 60.517 26.6059C60.1937 26.7474 59.8905 26.8585 59.6076 26.9394C59.3448 27 59.1023 27.0303 58.88 27.0303C58.3344 27.0303 57.9201 26.8787 57.6371 26.5756C57.3542 26.2522 57.2127 25.8379 57.2127 25.3327C57.2127 25.1306 57.243 24.9184 57.3037 24.6961C57.3643 24.4738 57.435 24.2515 57.5159 24.0292L57.7281 23.5138C57.2026 24.1605 56.6772 24.7062 56.1517 25.1508C55.6263 25.5752 55.1008 25.9491 54.5753 26.2724C54.1307 26.5352 53.7063 26.7272 53.3021 26.8484C52.9181 26.9697 52.5645 27.0303 52.2411 27.0303ZM53.1809 26.2421C53.5446 26.2421 54.0701 26.0299 54.7572 25.6055C55.4444 25.1609 56.2426 24.4839 57.1521 23.5744C57.2733 23.4532 57.4957 23.241 57.819 22.9378C58.1626 22.6145 58.5263 22.2608 58.9103 21.8768C59.2943 21.4726 59.6177 21.0785 59.8804 20.6946C60.1633 20.2904 60.3048 19.9569 60.3048 19.6942C60.3048 19.3102 59.9713 19.1182 59.3044 19.1182C58.7183 19.1182 58.011 19.3506 57.1824 19.8154C56.374 20.2601 55.5959 20.927 54.8482 21.8162C54.0802 22.7256 53.5143 23.5138 53.1506 24.1807C52.807 24.8275 52.6352 25.3226 52.6352 25.6662C52.6352 26.0501 52.8171 26.2421 53.1809 26.2421ZM67.78 27.1516C66.9716 27.1516 66.4057 26.9596 66.0823 26.5756C65.759 26.1714 65.5973 25.7066 65.5973 25.1811C65.5973 24.6759 65.6883 24.1403 65.8701 23.5744C66.0722 23.0086 66.2945 22.473 66.5371 21.9678C66.2743 22.2507 66.0217 22.5134 65.7792 22.756C65.5367 22.9783 65.3346 23.1601 65.1729 23.3016C65.0921 23.3622 65.0112 23.3926 64.9304 23.3926C64.8293 23.3926 64.7788 23.342 64.7788 23.241C64.7788 23.1399 64.8394 23.049 64.9607 22.9682C65.3851 22.6044 65.8802 22.1092 66.4461 21.4827C67.012 20.8562 67.5374 20.2196 68.0225 19.5729C68.4267 19.0475 68.9117 18.3906 69.4776 17.6025C70.0435 16.8143 70.6194 15.9857 71.2055 15.1167C71.7916 14.2274 72.2968 13.4191 72.7212 12.6915C72.7819 12.5702 72.8425 12.4187 72.9031 12.2368C72.984 12.0549 73.0244 11.8932 73.0244 11.7517C73.0244 11.5497 72.9436 11.4486 72.7819 11.4486C72.7415 11.4486 72.6202 11.489 72.4181 11.5699C72.2362 11.6507 72.0543 11.7315 71.8724 11.8124C71.6905 11.8932 71.5794 11.9336 71.539 11.9336C71.3773 11.9336 71.3874 11.8427 71.5693 11.6608C71.8926 11.4183 72.2968 11.1859 72.7819 10.9636C73.2871 10.7211 73.8025 10.519 74.3279 10.3573C74.8534 10.1956 75.298 10.1148 75.6618 10.1148C76.5106 10.1148 76.935 10.3876 76.935 10.9333C76.935 11.2162 76.8036 11.5901 76.5409 12.0549C76.3186 12.4187 75.9952 12.8532 75.5708 13.3584C75.1464 13.8435 74.6715 14.3689 74.146 14.9348C73.6408 15.4804 73.1456 16.0261 72.6606 16.5718C72.1756 17.0972 71.7714 17.562 71.448 17.9662C71.3672 18.0673 71.1651 18.33 70.8417 18.7544C70.5386 19.1788 70.1849 19.6942 69.7807 20.3005C69.3967 20.8866 69.0027 21.5131 68.5985 22.18C68.2145 22.8267 67.8911 23.4532 67.6284 24.0595C67.3859 24.6456 67.2646 25.1407 67.2646 25.5449C67.2646 26.0906 67.5273 26.3634 68.0528 26.3634C68.3964 26.3634 68.8309 26.2623 69.3563 26.0602C69.8616 25.8784 70.387 25.6055 70.9327 25.2418C71.4986 24.8578 72.0442 24.4536 72.5697 24.0292C73.1153 23.6048 73.5903 23.2006 73.9945 22.8166C74.4189 22.4326 74.7321 22.1396 74.9342 21.9375C75.0555 21.8162 75.1565 21.7556 75.2374 21.7556C75.3182 21.7556 75.3586 21.8061 75.3586 21.9071C75.3586 22.0082 75.3081 22.1092 75.207 22.2103C74.8837 22.5539 74.4391 22.9985 73.8732 23.5441C73.3275 24.0898 72.7111 24.6456 72.024 25.2114C71.3571 25.7571 70.6598 26.2219 69.9323 26.6059C69.2047 26.9697 68.4873 27.1516 67.78 27.1516ZM71.2039 35.094C69.9711 35.094 68.9505 34.9525 68.1421 34.6696C67.3337 34.3867 66.687 34.0027 66.2019 33.5176C65.8786 33.1741 65.5754 32.7194 65.2925 32.1535C65.0096 31.6078 64.8681 31.143 64.8681 30.759C64.8681 30.6175 64.8984 30.5468 64.959 30.5468C65.1005 30.5468 65.1915 30.6276 65.2319 30.7893C65.2319 30.85 65.3026 31.0824 65.4441 31.4866C65.5653 31.8908 65.7977 32.3354 66.1413 32.8204C66.4849 33.3054 66.9901 33.7298 67.657 34.0936C68.324 34.4574 69.193 34.6393 70.2641 34.6393C71.5373 34.6393 72.6792 34.3361 73.6897 33.7298C74.7001 33.1438 75.5995 32.3657 76.3877 31.3956C77.196 30.4458 77.9337 29.405 78.6006 28.2732C79.2675 27.1415 79.9041 26.0299 80.5104 24.9386C81.1167 23.8473 81.7331 22.8873 82.3596 22.0587C82.0969 22.3417 81.7634 22.6953 81.3593 23.1197C80.9753 23.5239 80.561 23.9382 80.1164 24.3626C79.6717 24.787 79.2473 25.171 78.8431 25.5146C78.4389 25.8581 78.1055 26.1108 77.8428 26.2724C77.3981 26.5352 76.9737 26.7272 76.5695 26.8484C76.1856 26.9697 75.8319 27.0303 75.5085 27.0303C74.882 27.0303 74.397 26.8383 74.0534 26.4543C73.7099 26.0501 73.5381 25.5348 73.5381 24.9083C73.5381 24.3222 73.6897 23.6755 73.9928 22.9682C74.3162 22.2608 74.8214 21.5434 75.5085 20.8158C76.2159 20.0478 77.095 19.4315 78.1459 18.9666C79.1968 18.4816 80.1972 18.2391 81.147 18.2391C81.4906 18.2391 81.8241 18.2795 82.1474 18.3603C82.4708 18.421 82.7638 18.5321 83.0266 18.6938C83.3903 18.9161 83.6531 19.1283 83.8147 19.3304C83.9966 19.5123 84.128 19.7346 84.2088 19.9973C84.3301 19.9973 84.5221 20.058 84.7848 20.1792C85.0475 20.2803 85.29 20.4116 85.5124 20.5733C85.7347 20.7148 85.8458 20.8663 85.8458 21.028C85.8458 21.1089 85.765 21.1998 85.6033 21.3009C85.1991 21.5029 84.7444 21.988 84.2391 22.756C83.7339 23.5037 83.168 24.403 82.5415 25.454C81.9352 26.4847 81.2481 27.5558 80.4801 28.6673C79.7324 29.799 78.8937 30.85 77.964 31.82C77.0344 32.7901 76.0037 33.5783 74.8719 34.1846C73.7604 34.7909 72.5377 35.094 71.2039 35.094ZM76.3573 26.2421C76.7615 26.2421 77.2567 26.04 77.8428 25.6358C78.2874 25.3327 78.7724 24.9588 79.2979 24.5142C79.8233 24.0494 80.3387 23.5643 80.8439 23.0591C81.3491 22.5539 81.7837 22.089 82.1474 21.6646C82.8144 20.8967 83.1478 20.2702 83.1478 19.7851C83.1478 19.3809 82.9053 19.1788 82.4203 19.1788C81.9352 19.1788 81.2683 19.4112 80.4195 19.8761C79.9345 20.1388 79.4191 20.5127 78.8735 20.9977C78.3278 21.4827 77.8124 22.0082 77.3274 22.5741C76.8626 23.1399 76.4887 23.6654 76.2058 24.1504C75.8824 24.7365 75.7207 25.2114 75.7207 25.5752C75.7207 26.0198 75.9329 26.2421 76.3573 26.2421ZM93.0365 17.7237C92.7536 17.7237 92.5414 17.6328 92.3999 17.4509C92.2585 17.269 92.1877 17.077 92.1877 16.8749C92.1877 16.4707 92.3797 16.0766 92.7637 15.6926C93.1477 15.2885 93.5519 15.0864 93.9763 15.0864C94.2592 15.0864 94.4714 15.1773 94.6129 15.3592C94.7544 15.5411 94.8251 15.7331 94.8251 15.9352C94.8251 16.3596 94.6331 16.7638 94.2491 17.1478C93.8853 17.5317 93.4811 17.7237 93.0365 17.7237ZM88.3984 27.0303C87.5698 27.0303 87.0039 26.8585 86.7008 26.515C86.4178 26.1512 86.2764 25.747 86.2764 25.3024C86.2764 24.9386 86.337 24.595 86.4583 24.2717C86.5795 23.9281 86.6806 23.6856 86.7614 23.5441C86.8827 23.342 87.0443 23.1096 87.2464 22.8469C87.4687 22.5842 87.7113 22.3012 87.974 21.9981C87.5698 22.3417 87.1858 22.6751 86.822 22.9985C86.4785 23.3218 86.1955 23.5643 85.9732 23.726C85.9126 23.7867 85.852 23.817 85.7913 23.817C85.7105 23.817 85.6701 23.7664 85.6701 23.6654C85.6701 23.5037 85.7812 23.342 86.0035 23.1804C86.529 22.7357 87.0342 22.2507 87.5193 21.7253C88.0245 21.1998 88.4994 20.7148 88.9441 20.2702C89.3887 19.8053 89.7828 19.482 90.1263 19.3001C90.4901 19.098 90.7831 18.9666 91.0055 18.906C91.2278 18.8454 91.4096 18.8151 91.5511 18.8151C91.7734 18.8151 91.9351 18.8555 92.0362 18.9363C92.1372 18.9969 92.1574 19.0677 92.0968 19.1485C91.7532 19.4921 91.4096 19.9367 91.0661 20.4824C90.7427 21.0078 90.4396 21.5636 90.1566 22.1497C89.8737 22.7357 89.6413 23.2915 89.4594 23.817C89.2977 24.3424 89.2169 24.787 89.2169 25.1508C89.2169 25.6561 89.419 25.9087 89.8232 25.9087C90.2072 25.9087 90.7023 25.7369 91.3086 25.3933C91.9351 25.0296 92.5818 24.5748 93.2487 24.0292C93.9359 23.4835 94.5725 22.9479 95.1586 22.4225C95.2394 22.3417 95.3101 22.3012 95.3708 22.3012C95.4718 22.3012 95.5223 22.3518 95.5223 22.4528C95.5425 22.5539 95.5223 22.6246 95.4617 22.665C94.7948 23.2915 94.0369 23.9483 93.1881 24.6355C92.3595 25.3024 91.5208 25.8683 90.672 26.3331C89.8434 26.7979 89.0855 27.0303 88.3984 27.0303ZM96.292 27.0303C95.6655 27.0303 95.1805 26.8383 94.8369 26.4543C94.4934 26.0501 94.3216 25.5348 94.3216 24.9083C94.3216 24.3222 94.4732 23.6755 94.7763 22.9682C95.0997 22.2608 95.6049 21.5434 96.292 20.8158C96.9994 20.0478 97.8785 19.4315 98.9294 18.9666C99.9803 18.4816 100.981 18.2391 101.931 18.2391C102.699 18.2391 103.355 18.4109 103.901 18.7544C104.447 19.0778 104.81 19.4921 104.992 19.9973C105.215 19.9973 105.487 20.058 105.811 20.1792C106.154 20.3005 106.326 20.5228 106.326 20.8461C106.326 21.0684 106.215 21.3211 105.993 21.604C105.851 21.8061 105.599 22.1092 105.235 22.5134C104.891 22.9176 104.568 23.3521 104.265 23.817C104.022 24.1807 103.83 24.5243 103.689 24.8477C103.547 25.1508 103.477 25.4135 103.477 25.6358C103.477 25.939 103.628 26.0906 103.931 26.0906C104.275 26.0906 104.79 25.8986 105.477 25.5146C106.225 25.0902 106.943 24.6051 107.63 24.0595C108.317 23.5138 108.852 23.0793 109.236 22.756C109.337 22.6751 109.408 22.6347 109.449 22.6347C109.529 22.6347 109.57 22.6852 109.57 22.7863C109.57 22.9075 109.519 23.0187 109.418 23.1197C109.236 23.2814 108.883 23.5846 108.357 24.0292C107.832 24.4738 107.226 24.9386 106.538 25.4236C105.871 25.9087 105.215 26.3028 104.568 26.6059C104.245 26.7474 103.941 26.8585 103.658 26.9394C103.396 27 103.153 27.0303 102.931 27.0303C102.385 27.0303 101.971 26.8787 101.688 26.5756C101.405 26.2522 101.264 25.8379 101.264 25.3327C101.264 25.1306 101.294 24.9184 101.355 24.6961C101.415 24.4738 101.486 24.2515 101.567 24.0292L101.779 23.5138C101.254 24.1605 100.728 24.7062 100.203 25.1508C99.6772 25.5752 99.1517 25.9491 98.6263 26.2724C98.1816 26.5352 97.7572 26.7272 97.353 26.8484C96.9691 26.9697 96.6154 27.0303 96.292 27.0303ZM97.2318 26.2421C97.5956 26.2421 98.121 26.0299 98.8081 25.6055C99.4953 25.1609 100.294 24.4839 101.203 23.5744C101.324 23.4532 101.547 23.241 101.87 22.9378C102.213 22.6145 102.577 22.2608 102.961 21.8768C103.345 21.4726 103.669 21.0785 103.931 20.6946C104.214 20.2904 104.356 19.9569 104.356 19.6942C104.356 19.3102 104.022 19.1182 103.355 19.1182C102.769 19.1182 102.062 19.3506 101.233 19.8154C100.425 20.2601 99.6469 20.927 98.8991 21.8162C98.1311 22.7256 97.5653 23.5138 97.2015 24.1807C96.8579 24.8275 96.6861 25.3226 96.6861 25.6662C96.6861 26.0501 96.868 26.2421 97.2318 26.2421Z" fill="black"/>
</svg>
